<svg width="900" height="354" viewBox="0 0 900 354" fill="none" xmlns="http://www.w3.org/2000/svg">
<rect width="1294" height="76" transform="translate(-381.032 269.498) rotate(-19.3417)" fill="#FFD33F"/>
<path d="M-336.049 285.503C-335.418 286.214 -335.485 287.594 -335.495 288.53C-335.935 288.727 -336.601 289.003 -337.432 289.294C-337.96 289.48 -338.526 289.679 -339.181 289.866C-338.1 291.013 -337.186 292.048 -336.462 293.024C-336.571 293.316 -336.842 293.751 -337.378 294.278C-337.853 294.614 -338.202 294.949 -338.655 295.108C-339.431 294.829 -340.635 293.937 -342.212 292.583C-342.692 294.236 -343.189 295.597 -343.664 296.781C-344.017 296.863 -344.523 296.871 -345.21 296.603C-345.731 296.447 -346.228 296.24 -346.662 295.968C-346.689 295.045 -346.547 293.639 -346.136 291.671C-348.455 292.189 -349.729 292.424 -350.022 292.315C-350.315 292.206 -350.511 291.766 -350.763 291.049C-351.081 290.143 -351.102 289.599 -350.802 289.367C-350.302 288.979 -349.046 288.454 -347.083 287.765C-348.782 285.945 -349.763 284.72 -349.961 284.154C-350.08 283.814 -349.871 283.444 -349.373 282.93C-348.913 282.43 -348.529 281.956 -348.136 281.987C-347.275 282.024 -345.257 284.029 -344.32 284.887C-343.185 281.479 -342.279 279.592 -341.599 279.354C-341.26 279.234 -340.776 279.404 -340.138 279.773C-339.55 280.118 -339.003 280.35 -338.883 280.69C-338.883 280.69 -339.448 282.584 -340.33 285.988C-338.69 285.709 -337.276 285.509 -336.049 285.503ZM-294.837 293.971C-293.548 292.331 -292.657 289.433 -293.26 287.355C-293.905 284.911 -295.44 283.076 -297.138 282.103C-299.421 280.912 -301.719 280.405 -304.031 280.58C-306.532 280.822 -309.073 280.951 -311.356 280.608C-313.01 280.001 -313.268 278.057 -313.227 277.449C-313.313 276.844 -313.412 275.352 -311.304 273.51C-308.97 272.309 -306.697 272.02 -305.408 271.949C-303.99 272.003 -302.695 272.311 -301.537 272.71C-301.235 272.604 -300.713 272.039 -300.306 271.388C-299.974 270.762 -300.052 269.815 -300.244 268.907C-302.293 268.143 -303.514 267.681 -305.045 267.667C-306.654 267.554 -308.096 267.551 -309.672 267.892C-311.286 268.247 -312.54 268.899 -313.718 269.652C-314.829 270.593 -315.824 271.621 -316.448 272.984C-317.151 274.121 -317.371 275.428 -317.417 276.504C-317.637 277.81 -317.554 279.011 -317.268 280.309C-316.999 281.317 -316.606 282.196 -316.163 282.974C-315.695 283.826 -315.09 284.462 -314.234 284.967C-311.991 286.045 -309.77 286.453 -307.46 286.15C-305.061 285.859 -300.688 284.791 -298.689 287.226C-296.532 289.988 -300.267 295.411 -307.136 293.837C-307.735 293.581 -309.176 292.857 -309.612 292.459C-309.612 292.459 -311.027 293.38 -311.839 294.81C-311.74 296.301 -309.122 297.841 -307.02 298.756C-303.048 299.566 -297.415 297.377 -294.837 293.971ZM-256.856 281.233C-255.079 280.015 -253.702 278.26 -252.303 276.328C-251.868 275.031 -253.65 273.579 -255.179 273.692C-256.211 274.012 -256.763 275.096 -257.803 275.757C-258.75 276.683 -262.363 280.156 -266.342 278.966C-270.116 277.875 -271.527 273.495 -272.406 269.903C-272.636 268.161 -273.774 265.763 -272.495 262.643C-272.119 261.663 -270.285 258.434 -265.634 258.158C-264.611 258.053 -262.549 258.008 -261.649 258.158C-260.424 258.024 -259.283 254.996 -260.671 254.423C-262.038 253.546 -263.977 253.337 -265.293 253.332C-267.152 253.349 -270.759 254.064 -273.385 256.003C-277.386 258.976 -278.65 263.829 -278.359 266.228C-278.431 268.076 -277.732 270.671 -277.066 272.811C-276.324 274.924 -275.648 276.849 -274.712 278.428C-273.637 280.043 -272.535 281.734 -270.937 282.784C-269.647 283.56 -268.629 283.924 -266.564 284.131C-263.788 284.429 -259.622 283.136 -256.856 281.233ZM-230.317 272.765C-230.015 272.659 -229.676 272.54 -229.26 272.394C-228.883 272.262 -228.247 271.657 -228.072 271.553C-228.326 269.862 -230.514 263.508 -231.012 261.606L-226.842 260.565C-224.854 262.242 -222.799 263.386 -220.658 264.415C-218.516 265.443 -216.024 266.264 -214.192 266.893L-212.89 263.596C-214.184 262.566 -218.601 259.284 -221.872 258.058C-221.391 257.253 -219.839 255.394 -219.532 254.82C-218.997 253.445 -217.345 251.509 -219.107 246.489C-220.129 243.457 -222.17 241.629 -223.154 241C-224.342 240.272 -225.488 239.784 -226.655 239.6C-230.08 239.022 -234.05 240.755 -235.416 241.573C-238.625 243.42 -240.713 245.807 -240.924 246.05C-240.753 247.262 -238.418 254.879 -237.275 258.378C-236.688 260.291 -233.105 269.292 -232.762 270.147C-232.254 271.113 -231.858 272.119 -231.453 272.91L-230.317 272.765ZM-232.308 257.312L-235.726 247.575C-233.839 246.065 -230.18 244.653 -229.17 244.511C-227.288 244.316 -224.432 244.967 -223.361 247.898C-221.824 252.276 -225.142 255.263 -232.308 257.312ZM-184.98 257.36C-183.266 256.928 -181.681 256.371 -180.119 255.145C-178.921 254.089 -177.333 252.09 -176.635 249.852C-175.938 246.767 -175.333 243.418 -178.133 235.922C-180.595 229.876 -182.284 226.272 -183.503 224.369L-184.239 224.203C-184.858 224.251 -185.349 224.423 -185.749 224.733C-186.238 225.032 -186.558 225.568 -186.699 226.254C-183.777 232.647 -181.934 237.172 -181.226 241.12C-179.987 248.273 -182.609 250.466 -186.172 251.547C-189.382 252.546 -191.816 249.84 -193.195 246.636C-194.358 244.288 -195.368 242.014 -196.256 239.486C-197.617 235.851 -198.396 232.182 -199.192 230.639C-200.743 230.929 -201.734 231.489 -202.165 232.191C-202.085 233.265 -200.844 238.129 -200.076 240.318C-197.244 248.989 -194.433 253.132 -191.764 255.544C-190.574 256.398 -188.034 257.838 -184.98 257.36ZM-150.987 244.41C-151.471 240.977 -153.458 228.914 -154.221 224.688C-152.178 227.49 -144.589 238.604 -142.721 241.509L-139.928 240.529C-139.551 235.564 -140.958 222.619 -141.193 218.929C-139.263 221.77 -133.11 234.108 -131.315 237.166C-130.035 237.311 -128.025 235.672 -127.904 235.291C-129.885 230.856 -132.146 226.224 -134.365 221.958C-136.683 217.769 -138.859 213.743 -141.602 209.915C-142.231 209.331 -143.358 209.26 -144.237 209.653C-145.573 209.953 -146.198 210.469 -146.394 210.877C-146.625 213.84 -145.919 224.064 -145.174 229.568C-146.925 226.875 -154.111 216.426 -155.937 214.608C-156.766 214.178 -157.922 214.627 -158.375 214.786C-159.017 215.011 -159.481 215.258 -159.639 215.653C-159.426 220.368 -158.739 226.19 -157.893 230.895C-157.374 234.062 -156.1 240.228 -154.573 244.821C-153.405 245.853 -151.341 245.213 -150.987 244.41ZM-102.938 203.678C-102.307 204.389 -102.374 205.769 -102.385 206.705C-102.824 206.902 -103.49 207.178 -104.321 207.47C-104.849 207.655 -105.415 207.854 -106.07 208.041C-104.989 209.188 -104.075 210.224 -103.351 211.199C-103.46 211.492 -103.731 211.926 -104.267 212.453C-104.742 212.79 -105.091 213.124 -105.544 213.283C-106.32 213.004 -107.524 212.113 -109.101 210.759C-109.581 212.411 -110.078 213.772 -110.553 214.956C-110.906 215.038 -111.412 215.046 -112.099 214.778C-112.62 214.622 -113.117 214.415 -113.551 214.143C-113.578 213.22 -113.436 211.814 -113.025 209.847C-115.344 210.364 -116.618 210.599 -116.911 210.49C-117.204 210.381 -117.4 209.941 -117.652 209.224C-117.97 208.318 -117.991 207.775 -117.691 207.542C-117.191 207.155 -115.935 206.629 -113.972 205.94C-115.671 204.12 -116.652 202.895 -116.85 202.329C-116.97 201.99 -116.76 201.619 -116.262 201.106C-115.802 200.605 -115.418 200.131 -115.025 200.162C-114.164 200.199 -112.146 202.204 -111.209 203.062C-110.074 199.654 -109.168 197.767 -108.488 197.529C-108.149 197.41 -107.665 197.579 -107.027 197.949C-106.439 198.293 -105.892 198.525 -105.772 198.865C-105.772 198.865 -106.337 200.759 -107.219 204.163C-105.579 203.884 -104.165 203.685 -102.938 203.678ZM-61.7264 212.146C-60.4367 210.507 -59.5464 207.608 -60.1486 205.53C-60.7945 203.086 -62.329 201.251 -64.0269 200.278C-66.3103 199.087 -68.6081 198.58 -70.9204 198.756C-73.4214 198.998 -75.9621 199.126 -78.2447 198.783C-79.8989 198.177 -80.1574 196.232 -80.1164 195.625C-80.2019 195.019 -80.3014 193.528 -78.1926 191.685C-75.8585 190.484 -73.586 190.195 -72.2967 190.124C-70.879 190.178 -69.5838 190.486 -68.4262 190.885C-68.1243 190.779 -67.6019 190.214 -67.1948 189.563C-66.8631 188.938 -66.9413 187.99 -67.1328 187.082C-69.1817 186.318 -70.4034 185.856 -71.9344 185.843C-73.5428 185.729 -74.985 185.726 -76.561 186.068C-78.1747 186.422 -79.4294 187.075 -80.6067 187.827C-81.7177 188.768 -82.7135 189.796 -83.3371 191.159C-84.0402 192.296 -84.2599 193.603 -84.3061 194.679C-84.5258 195.985 -84.4435 197.186 -84.1573 198.484C-83.8883 199.492 -83.4949 200.371 -83.0525 201.149C-82.5835 202.002 -81.9789 202.637 -81.1233 203.142C-78.8797 204.22 -76.6594 204.628 -74.3491 204.326C-71.9501 204.035 -67.5772 202.966 -65.5778 205.401C-63.4214 208.163 -67.1561 213.586 -74.025 212.012C-74.6237 211.756 -76.0647 211.032 -76.5011 210.634C-76.5011 210.634 -77.916 211.555 -78.7284 212.985C-78.6289 214.476 -76.0111 216.016 -73.9092 216.931C-69.9367 217.741 -64.3039 215.552 -61.7264 212.146ZM-23.7449 199.408C-21.9678 198.191 -20.5913 196.436 -19.1924 194.503C-18.7575 193.206 -20.5389 191.754 -22.0679 191.867C-23.1001 192.187 -23.6523 193.271 -24.6918 193.932C-25.6386 194.858 -29.2523 198.331 -33.2308 197.142C-37.0054 196.05 -38.4157 191.67 -39.2948 188.079C-39.5248 186.336 -40.6634 183.938 -39.3844 180.818C-39.0077 179.838 -37.1739 176.609 -32.5228 176.333C-31.4998 176.228 -29.4384 176.183 -28.5378 176.333C-27.3128 176.2 -26.1716 173.171 -27.5596 172.598C-28.9271 171.722 -30.866 171.512 -32.1817 171.507C-34.0411 171.524 -37.6479 172.239 -40.2738 174.178C-44.275 177.151 -45.5392 182.004 -45.2482 184.403C-45.3202 186.251 -44.6212 188.846 -43.9548 190.986C-43.213 193.1 -42.5373 195.025 -41.6015 196.604C-40.5259 198.219 -39.4238 199.909 -37.8259 200.959C-36.5359 201.736 -35.5181 202.099 -33.4527 202.307C-30.6775 202.604 -26.5106 201.311 -23.7449 199.408ZM2.79379 190.94C3.09573 190.834 3.43541 190.715 3.85058 190.569C4.228 190.437 4.86362 189.832 5.03908 189.728C4.7846 188.037 2.59667 181.683 2.09849 179.781L6.26941 178.741C8.2568 180.417 10.3117 181.561 12.4533 182.59C14.5949 183.619 17.0874 184.439 18.919 185.068L20.2205 181.771C18.9265 180.742 14.51 177.459 11.2394 176.233C11.72 175.428 13.272 173.57 13.5791 172.995C14.114 171.621 15.7659 169.684 14.0039 164.664C12.9818 161.632 10.9414 159.804 9.95736 159.175C8.76933 158.447 7.62305 157.959 6.45627 157.775C3.03143 157.197 -0.938767 158.93 -2.30474 159.748C-5.51408 161.596 -7.60163 163.982 -7.81284 164.225C-7.64185 165.437 -5.30743 173.054 -4.16409 176.553C-3.57717 178.466 0.00627756 187.468 0.348725 188.322C0.857392 189.288 1.25283 190.294 1.65752 191.085L2.79379 190.94ZM0.803421 175.487L-2.61458 165.75C-0.728219 164.24 2.93079 162.828 3.94059 162.686C5.82247 162.492 8.67918 163.142 9.75027 166.073C11.287 170.451 7.96924 173.438 0.803421 175.487ZM48.1313 175.535C49.845 175.103 51.4302 174.547 52.9921 173.32C54.1898 172.264 55.7775 170.265 56.4758 168.028C57.1734 164.942 57.7782 161.593 54.9776 154.098C52.5162 148.052 50.8273 144.447 49.608 142.544L48.8716 142.378C48.2525 142.426 47.7618 142.598 47.3619 142.908C46.8733 143.207 46.5528 143.743 46.4119 144.429C49.3342 150.822 51.1769 155.347 51.8846 159.295C53.1237 166.449 50.5017 168.641 46.9387 169.722C43.7286 170.721 41.2948 168.015 39.9157 164.811C38.7527 162.463 37.7426 160.19 36.855 157.661C35.4944 154.026 34.7153 150.357 33.9191 148.814C32.3677 149.104 31.3772 149.664 30.9455 150.366C31.0257 151.44 32.2666 156.304 33.035 158.493C35.8668 167.165 38.6776 171.307 41.3471 173.719C42.5371 174.574 45.0774 176.013 48.1313 175.535ZM82.1245 162.586C81.64 159.152 79.6527 147.09 78.89 142.864C80.9332 145.665 88.5224 156.779 90.39 159.684L93.183 158.704C93.5598 153.739 92.1531 140.794 91.9176 137.104C93.8475 139.945 100.001 152.283 101.795 155.342C103.075 155.486 105.086 153.847 105.207 153.466C103.226 149.032 100.964 144.399 98.7463 140.133C96.4282 135.945 94.2518 131.918 91.5093 128.09C90.8802 127.506 89.7531 127.435 88.8738 127.828C87.5376 128.128 86.9132 128.644 86.7172 129.052C86.4858 132.016 87.1916 142.239 87.9366 147.743C86.1861 145.051 78.9996 134.601 77.1744 132.783C76.3453 132.353 75.1886 132.802 74.7356 132.961C74.094 133.186 73.6299 133.434 73.4717 133.828C73.6854 138.544 74.3722 144.365 75.2183 149.07C75.7365 152.237 77.0106 158.403 78.5382 162.997C79.7057 164.028 81.7703 163.388 82.1245 162.586ZM130.172 121.853C130.804 122.564 130.737 123.944 130.726 124.88C130.287 125.077 129.621 125.353 128.79 125.645C128.262 125.83 127.696 126.029 127.041 126.216C128.122 127.363 129.036 128.399 129.76 129.374C129.651 129.667 129.38 130.101 128.844 130.628C128.369 130.965 128.02 131.299 127.567 131.458C126.791 131.18 125.587 130.288 124.01 128.934C123.53 130.586 123.033 131.947 122.558 133.131C122.205 133.213 121.699 133.221 121.012 132.954C120.491 132.797 119.994 132.59 119.56 132.319C119.532 131.396 119.675 129.989 120.086 128.022C117.767 128.539 116.493 128.774 116.2 128.665C115.907 128.556 115.711 128.116 115.459 127.399C115.141 126.493 115.12 125.95 115.42 125.717C115.92 125.33 117.176 124.804 119.139 124.115C117.44 122.295 116.459 121.071 116.261 120.505C116.141 120.165 116.351 119.795 116.849 119.281C117.309 118.78 117.693 118.306 118.086 118.338C118.947 118.375 120.965 120.379 121.902 121.238C123.037 117.829 123.943 115.943 124.623 115.704C124.962 115.585 125.446 115.754 126.084 116.124C126.672 116.469 127.219 116.7 127.338 117.04C127.338 117.04 126.774 118.934 125.892 122.338C127.532 122.059 128.945 121.86 130.172 121.853ZM171.385 130.322C172.674 128.682 173.565 125.783 172.962 123.706C172.316 121.262 170.782 119.426 169.084 118.454C166.801 117.263 164.503 116.755 162.191 116.931C159.69 117.173 157.149 117.302 154.866 116.958C153.212 116.352 152.954 114.408 152.995 113.8C152.909 113.194 152.81 111.703 154.918 109.86C157.252 108.659 159.525 108.371 160.814 108.3C162.232 108.353 163.527 108.661 164.685 109.061C164.987 108.955 165.509 108.39 165.916 107.738C166.248 107.113 166.17 106.165 165.978 105.258C163.929 104.493 162.708 104.032 161.177 104.018C159.568 103.904 158.126 103.902 156.55 104.243C154.936 104.597 153.682 105.25 152.504 106.002C151.393 106.943 150.397 107.971 149.774 109.334C149.071 110.472 148.851 111.778 148.805 112.854C148.585 114.161 148.667 115.361 148.954 116.66C149.223 117.667 149.616 118.547 150.059 119.324C150.527 120.177 151.132 120.812 151.988 121.318C154.231 122.395 156.452 122.803 158.762 122.501C161.161 122.21 165.534 121.141 167.533 123.576C169.69 126.338 165.955 131.761 159.086 130.187C158.487 129.931 157.046 129.207 156.61 128.81C156.61 128.81 155.195 129.73 154.383 131.16C154.482 132.651 157.1 134.191 159.202 135.107C163.174 135.917 168.807 133.727 171.385 130.322ZM209.366 117.583C211.143 116.366 212.52 114.611 213.919 112.678C214.353 111.381 212.572 109.929 211.043 110.042C210.011 110.362 209.459 111.446 208.419 112.108C207.472 113.033 203.859 116.506 199.88 115.317C196.106 114.225 194.695 109.845 193.816 106.254C193.586 104.512 192.448 102.113 193.727 98.9937C194.103 98.0136 195.937 94.784 200.588 94.5079C201.611 94.4032 203.673 94.3579 204.573 94.5081C205.798 94.3749 206.939 91.3459 205.551 90.7733C204.184 89.8968 202.245 89.6871 200.929 89.6826C199.07 89.6994 195.463 90.4143 192.837 92.3535C188.836 95.3265 187.572 100.179 187.863 102.578C187.791 104.426 188.49 107.021 189.156 109.161C189.898 111.275 190.574 113.2 191.51 114.779C192.585 116.394 193.687 118.084 195.285 119.134C196.575 119.911 197.593 120.274 199.658 120.482C202.433 120.78 206.6 119.486 209.366 117.583ZM235.905 109.115C236.207 109.01 236.546 108.89 236.962 108.745C237.339 108.612 237.975 108.007 238.15 107.903C237.896 106.212 235.708 99.8583 235.209 97.9559L239.38 96.9158C241.368 98.5922 243.423 99.7362 245.564 100.765C247.706 101.794 250.198 102.615 252.03 103.243L253.331 99.9462C252.037 98.9167 247.621 95.6342 244.35 94.4082C244.831 93.6036 246.383 91.7447 246.69 91.1706C247.225 89.7958 248.877 87.8594 247.115 82.8397C246.093 79.807 244.052 77.9797 243.068 77.3501C241.88 76.6225 240.734 76.1346 239.567 75.9506C236.142 75.3723 232.172 77.105 230.806 77.9237C227.597 79.7709 225.509 82.1569 225.298 82.4006C225.469 83.6124 227.804 91.2291 228.947 94.7279C229.534 96.6415 233.117 105.643 233.46 106.498C233.968 107.464 234.364 108.469 234.768 109.26L235.905 109.115ZM233.914 93.6625L230.496 83.925C232.383 82.415 236.042 81.0035 237.052 80.861C238.933 80.6667 241.79 81.3173 242.861 84.248C244.398 88.6261 241.08 91.6136 233.914 93.6625ZM281.242 93.7102C282.956 93.2782 284.541 92.7218 286.103 91.4953C287.301 90.439 288.888 88.4403 289.587 86.2027C290.284 83.1176 290.889 79.7682 288.089 72.2727C285.627 66.2267 283.938 62.6227 282.719 60.7191L281.983 60.5536C281.363 60.6014 280.873 60.7736 280.473 61.0836C279.984 61.3823 279.664 61.9187 279.523 62.604C282.445 68.997 284.288 73.5221 284.996 77.4705C286.235 84.6239 283.613 86.816 280.05 87.8971C276.84 88.8967 274.406 86.19 273.027 82.9859C271.864 80.6386 270.854 78.3648 269.966 75.8361C268.605 72.2016 267.826 68.5326 267.03 66.9891C265.479 67.2793 264.488 67.839 264.056 68.5416C264.137 69.6157 265.378 74.4792 266.146 76.6683C268.978 85.3398 271.789 89.4827 274.458 91.8946C275.648 92.7487 278.188 94.1886 281.242 93.7102ZM315.235 80.7607C314.751 77.3274 312.764 65.2648 312.001 61.0389C314.044 63.8403 321.633 74.954 323.501 77.8594L326.294 76.8791C326.671 71.914 325.264 58.9693 325.029 55.2791C326.959 58.1202 333.112 70.4585 334.906 73.5168C336.186 73.661 338.197 72.0226 338.318 71.6411C336.337 67.2068 334.075 62.5745 331.857 58.3083C329.539 54.1197 327.363 50.0933 324.62 46.2656C323.991 45.6809 322.864 45.6102 321.985 46.0037C320.649 46.3031 320.024 46.819 319.828 47.227C319.597 50.1909 320.303 60.4141 321.048 65.918C319.297 63.2258 312.111 52.7763 310.285 50.9581C309.456 50.5285 308.3 50.9769 307.847 51.1359C307.205 51.3611 306.741 51.6088 306.583 52.0035C306.796 56.7188 307.483 62.5399 308.329 67.2452C308.847 70.4124 310.122 76.5784 311.649 81.1717C312.817 82.2033 314.881 81.5633 315.235 80.7607ZM363.283 40.0282C363.915 40.7393 363.848 42.1193 363.837 43.0556C363.398 43.2524 362.732 43.5286 361.901 43.82C361.373 44.0055 360.807 44.2042 360.152 44.3917C361.233 45.5384 362.147 46.574 362.871 47.5493C362.762 47.842 362.491 48.2764 361.955 48.8035C361.479 49.14 361.131 49.4744 360.678 49.6334C359.902 49.3547 358.698 48.4629 357.121 47.109C356.641 48.7611 356.144 50.1226 355.669 51.3067C355.316 51.3882 354.81 51.3962 354.123 51.1287C353.602 50.9725 353.105 50.7653 352.671 50.4939C352.643 49.5708 352.786 48.1643 353.197 46.197C350.878 46.7144 349.604 46.9496 349.311 46.8404C349.018 46.7312 348.822 46.2915 348.57 45.5744C348.252 44.6686 348.231 44.1249 348.531 43.8925C349.031 43.505 350.287 42.9791 352.25 42.2902C350.551 40.4701 349.57 39.2459 349.372 38.6797C349.252 38.3401 349.462 37.9699 349.96 37.456C350.42 36.9553 350.804 36.4811 351.197 36.5129C352.058 36.5499 354.076 38.5547 355.013 39.4127C356.148 36.0044 357.054 34.1177 357.734 33.8793C358.073 33.76 358.557 33.9295 359.195 34.2989C359.783 34.6438 360.33 34.8755 360.449 35.2152C360.449 35.2152 359.885 37.1091 359.003 40.5135C360.643 40.2345 362.056 40.035 363.283 40.0282ZM404.495 48.4967C405.785 46.857 406.675 43.9586 406.073 41.8807C405.427 39.4367 403.893 37.6014 402.195 36.6288C399.912 35.4379 397.614 34.9302 395.302 35.106C392.801 35.348 390.26 35.4768 387.977 35.1334C386.323 34.527 386.065 32.5829 386.106 31.975C386.02 31.3691 385.921 29.8779 388.029 28.0355C390.363 26.8347 392.636 26.5457 393.925 26.4747C395.343 26.5282 396.638 26.8366 397.796 27.2357C398.098 27.1298 398.62 26.5649 399.027 25.9132C399.359 25.2881 399.281 24.3405 399.089 23.4327C397.04 22.6681 395.818 22.2068 394.288 22.193C392.679 22.0793 391.237 22.0769 389.661 22.4181C388.047 22.7725 386.793 23.4249 385.615 24.1773C384.504 25.1184 383.508 26.1462 382.885 27.5097C382.182 28.6467 381.962 29.9532 381.916 31.0293C381.696 32.3358 381.778 33.5363 382.065 34.8348C382.334 35.8426 382.727 36.7219 383.169 37.4992C383.638 38.3521 384.243 38.9877 385.099 39.4928C387.342 40.5706 389.563 40.9782 391.873 40.676C394.272 40.385 398.645 39.3164 400.644 41.7516C402.801 44.5133 399.066 49.9363 392.197 48.3625C391.598 48.1063 390.157 47.3827 389.721 46.9848C389.721 46.9848 388.306 47.9054 387.494 49.3351C387.593 50.8263 390.211 52.3662 392.313 53.2817C396.285 54.0918 401.918 51.9026 404.495 48.4967ZM442.477 35.7582C444.254 34.5409 445.631 32.786 447.03 30.8536C447.464 29.5564 445.683 28.1044 444.154 28.2172C443.122 28.5371 442.57 29.6212 441.53 30.2828C440.583 31.2087 436.97 34.6815 432.991 33.4921C429.217 32.4006 427.806 28.0205 426.927 24.429C426.697 22.6868 425.559 20.2885 426.838 17.1689C427.214 16.1888 429.048 12.9592 433.699 12.6831C434.722 12.5784 436.784 12.5331 437.684 12.6833C438.909 12.5501 440.05 9.52115 438.662 8.94854C437.295 8.07198 435.356 7.8623 434.04 7.85783C432.181 7.8746 428.574 8.58952 425.948 10.5287C421.947 13.5017 420.683 18.3543 420.974 20.7533C420.902 22.6014 421.601 25.1964 422.267 27.3365C423.009 29.45 423.685 31.3749 424.62 32.9541C425.696 34.569 426.798 36.2594 428.396 37.3094C429.686 38.086 430.704 38.4494 432.769 38.6571C435.544 38.9547 439.711 37.6617 442.477 35.7582ZM469.016 27.2907C469.318 27.1847 469.657 27.0655 470.073 26.9197C470.45 26.7873 471.086 26.1826 471.261 26.0786C471.007 24.3875 468.819 18.0335 468.32 16.1311L472.491 15.091C474.479 16.7674 476.534 17.9114 478.675 18.9402C480.817 19.9689 483.309 20.7897 485.141 21.4186L486.442 18.1214C485.148 17.0919 480.732 13.8094 477.461 12.5834C477.942 11.7788 479.494 9.9199 479.801 9.34576C480.336 7.97102 481.988 6.03462 480.226 1.01488C479.204 -2.01777 477.163 -3.84512 476.179 -4.47473C474.991 -5.20232 473.845 -5.69021 472.678 -5.87415C469.253 -6.45248 465.283 -4.71975 463.917 -3.90114C460.708 -2.05395 458.62 0.332121 458.409 0.575828C458.58 1.78759 460.915 9.40431 462.058 12.9031C462.645 14.8167 466.228 23.8179 466.571 24.6727C467.079 25.6388 467.475 26.6446 467.879 27.4352L469.016 27.2907ZM467.025 11.8377L463.607 2.10019C465.494 0.590206 469.153 -0.82133 470.163 -0.963817C472.044 -1.15806 474.901 -0.507488 475.972 2.42317C477.509 6.80129 474.191 9.78877 467.025 11.8377ZM514.353 11.8854C516.067 11.4534 517.652 10.897 519.214 9.67047C520.412 8.61416 521.999 6.61552 522.698 4.37795C523.395 1.29279 524 -2.05657 521.2 -9.55206C518.738 -15.5981 517.049 -19.2021 515.83 -21.1057L515.094 -21.2712C514.474 -21.2234 513.984 -21.0512 513.584 -20.7412C513.095 -20.4425 512.775 -19.9061 512.634 -19.2208C515.556 -12.8278 517.399 -8.30274 518.106 -4.35427C519.346 2.79906 516.724 4.99118 513.161 6.07228C509.951 7.07188 507.517 4.3652 506.138 1.1611C504.975 -1.18617 503.965 -3.45996 503.077 -5.9887C501.716 -9.62322 500.937 -13.2922 500.141 -14.8357C498.59 -14.5455 497.599 -13.9858 497.167 -13.2832C497.248 -12.2091 498.489 -7.34561 499.257 -5.15655C502.089 3.51496 504.9 7.65786 507.569 10.0698C508.759 10.9239 511.299 12.3638 514.353 11.8854ZM548.346 -1.06406C547.862 -4.49738 545.875 -16.56 545.112 -20.7859C547.155 -17.9845 554.744 -6.87078 556.612 -3.96538L559.405 -4.94574C559.782 -9.91077 558.375 -22.8555 558.14 -26.5457C560.069 -23.7046 566.223 -11.3663 568.017 -8.30798C569.297 -8.16377 571.308 -9.80224 571.429 -10.1837C569.448 -14.618 567.186 -19.2503 564.968 -23.5165C562.65 -27.7051 560.474 -31.7315 557.731 -35.5592C557.102 -36.1439 555.975 -36.2146 555.096 -35.8211C553.76 -35.5217 553.135 -35.0058 552.939 -34.5978C552.708 -31.6339 553.414 -21.4107 554.159 -15.9068C552.408 -18.599 545.222 -29.0485 543.396 -30.8667C542.567 -31.2963 541.41 -30.8479 540.958 -30.6889C540.316 -30.4637 539.852 -30.216 539.694 -29.8213C539.907 -25.106 540.594 -19.2849 541.44 -14.5796C541.958 -11.4124 543.233 -5.24641 544.76 -0.653079C545.928 0.37845 547.992 -0.26146 548.346 -1.06406ZM596.394 -41.7966C597.026 -41.0855 596.959 -39.7055 596.948 -38.7692C596.509 -38.5724 595.843 -38.2962 595.012 -38.0048C594.484 -37.8193 593.918 -37.6206 593.263 -37.4331C594.344 -36.2864 595.258 -35.2508 595.982 -34.2755C595.873 -33.9828 595.601 -33.5484 595.066 -33.0213C594.59 -32.6848 594.242 -32.3504 593.789 -32.1914C593.012 -32.4701 591.809 -33.3619 590.232 -34.7158C589.752 -33.0637 589.255 -31.7022 588.78 -30.5181C588.427 -30.4366 587.921 -30.4286 587.234 -30.6961C586.713 -30.8523 586.216 -31.0595 585.782 -31.3309C585.754 -32.254 585.897 -33.6605 586.308 -35.6278C583.989 -35.1104 582.715 -34.8752 582.422 -34.9844C582.129 -35.0936 581.933 -35.5333 581.681 -36.2504C581.363 -37.1562 581.342 -37.6999 581.642 -37.9323C582.142 -38.3198 583.398 -38.8457 585.361 -39.5346C583.662 -41.3547 582.681 -42.5789 582.483 -43.1451C582.363 -43.4847 582.573 -43.8549 583.07 -44.3688C583.531 -44.8695 583.915 -45.3437 584.308 -45.3119C585.169 -45.2749 587.187 -43.2701 588.124 -42.4121C589.259 -45.8204 590.165 -47.7071 590.845 -47.9455C591.184 -48.0648 591.668 -47.8953 592.306 -47.5259C592.894 -47.181 593.441 -46.9493 593.56 -46.6096C593.56 -46.6096 592.996 -44.7157 592.114 -41.3113C593.754 -41.5903 595.167 -41.7898 596.394 -41.7966ZM637.606 -33.3281C638.896 -34.9678 639.786 -37.8662 639.184 -39.9441C638.538 -42.3881 637.004 -44.2234 635.306 -45.196C633.023 -46.3869 630.725 -46.8946 628.413 -46.7188C625.912 -46.4768 623.371 -46.348 621.088 -46.6914C619.434 -47.2978 619.176 -49.2419 619.217 -49.8498C619.131 -50.4557 619.032 -51.9469 621.14 -53.7893C623.474 -54.9901 625.747 -55.2791 627.036 -55.3501C628.454 -55.2966 629.749 -54.9882 630.907 -54.5891C631.209 -54.695 631.731 -55.2599 632.138 -55.9116C632.47 -56.5367 632.392 -57.4843 632.2 -58.3921C630.151 -59.1567 628.929 -59.618 627.399 -59.6318C625.79 -59.7455 624.348 -59.7479 622.772 -59.4067C621.158 -59.0523 619.903 -58.3999 618.726 -57.6475C617.615 -56.7064 616.619 -55.6786 615.996 -54.3151C615.293 -53.1781 615.073 -51.8716 615.027 -50.7955C614.807 -49.489 614.889 -48.2885 615.176 -46.99C615.445 -45.9822 615.838 -45.1029 616.28 -44.3256C616.749 -43.4727 617.354 -42.8371 618.21 -42.332C620.453 -41.2542 622.673 -40.8466 624.984 -41.1488C627.383 -41.4398 631.756 -42.5084 633.755 -40.0732C635.911 -37.3115 632.177 -31.8885 625.308 -33.4623C624.709 -33.7185 623.268 -34.4421 622.832 -34.84C622.832 -34.84 621.417 -33.9194 620.605 -32.4897C620.704 -30.9985 623.322 -29.4586 625.424 -28.5431C629.396 -27.733 635.029 -29.9222 637.606 -33.3281ZM675.588 -46.0666C677.365 -47.2839 678.742 -49.0388 680.141 -50.9712C680.575 -52.2684 678.794 -53.7204 677.265 -53.6076C676.233 -53.2877 675.681 -52.2036 674.641 -51.542C673.694 -50.6161 670.081 -47.1433 666.102 -48.3327C662.328 -49.4242 660.917 -53.8043 660.038 -57.3958C659.808 -59.138 658.67 -61.5363 659.948 -64.6559C660.325 -65.636 662.159 -68.8656 666.81 -69.1417C667.833 -69.2464 669.894 -69.2917 670.795 -69.1415C672.02 -69.2747 673.161 -72.3037 671.773 -72.8763C670.406 -73.7528 668.467 -73.9625 667.151 -73.967C665.292 -73.9502 661.685 -73.2353 659.059 -71.2961C655.058 -68.3231 653.794 -63.4705 654.085 -61.0715C654.013 -59.2234 654.712 -56.6284 655.378 -54.4883C656.12 -52.3748 656.796 -50.4499 657.731 -48.8707C658.807 -47.2558 659.909 -45.5654 661.507 -44.5154C662.797 -43.7388 663.815 -43.3754 665.88 -43.1677C668.655 -42.8701 672.822 -44.1631 675.588 -46.0666ZM702.127 -54.5341C702.429 -54.6401 702.768 -54.7593 703.183 -54.9051C703.561 -55.0375 704.197 -55.6422 704.372 -55.7462C704.118 -57.4373 701.93 -63.7913 701.431 -65.6937L705.602 -66.7338C707.59 -65.0574 709.645 -63.9134 711.786 -62.8846C713.928 -61.8559 716.42 -61.0351 718.252 -60.4062L719.553 -63.7034C718.259 -64.7329 713.843 -68.0154 710.572 -69.2414C711.053 -70.046 712.605 -71.9049 712.912 -72.479C713.447 -73.8538 715.099 -75.7902 713.337 -80.8099C712.315 -83.8426 710.274 -85.6699 709.29 -86.2995C708.102 -87.0271 706.956 -87.515 705.789 -87.699C702.364 -88.2773 698.394 -86.5446 697.028 -85.7259C693.819 -83.8787 691.731 -81.4927 691.52 -81.249C691.691 -80.0372 694.025 -72.4205 695.169 -68.9217C695.756 -67.0081 699.339 -58.0069 699.682 -57.1521C700.19 -56.186 700.586 -55.1802 700.99 -54.3896L702.127 -54.5341ZM700.136 -69.9871L696.718 -79.7246C698.605 -81.2346 702.264 -82.6461 703.273 -82.7886C705.155 -82.9829 708.012 -82.3323 709.083 -79.4016C710.62 -75.0235 707.302 -72.036 700.136 -69.9871ZM747.464 -69.9394C749.178 -70.3714 750.763 -70.9278 752.325 -72.1543C753.523 -73.2106 755.11 -75.2093 755.809 -77.4469C756.506 -80.532 757.111 -83.8814 754.311 -91.3769C751.849 -97.4229 750.16 -101.027 748.941 -102.931L748.205 -103.096C747.585 -103.048 747.095 -102.876 746.695 -102.566C746.206 -102.267 745.886 -101.731 745.745 -101.046C748.667 -94.6526 750.51 -90.1275 751.217 -86.1791C752.457 -79.0257 749.835 -76.8336 746.272 -75.7525C743.061 -74.7529 740.628 -77.4596 739.249 -80.6637C738.086 -83.011 737.075 -85.2848 736.188 -87.8135C734.827 -91.448 734.048 -95.117 733.252 -96.6605C731.701 -96.3703 730.71 -95.8106 730.278 -95.108C730.359 -94.0339 731.599 -89.1704 732.368 -86.9813C735.2 -78.3098 738.01 -74.1669 740.68 -71.755C741.87 -70.9009 744.41 -69.461 747.464 -69.9394ZM781.457 -82.8889C780.973 -86.3222 778.986 -98.3848 778.223 -102.611C780.266 -99.8093 787.855 -88.6956 789.723 -85.7902L792.516 -86.7705C792.893 -91.7356 791.486 -104.68 791.251 -108.371C793.18 -105.529 799.334 -93.1911 801.128 -90.1328C802.408 -89.9886 804.419 -91.627 804.54 -92.0085C802.559 -96.4428 800.297 -101.075 798.079 -105.341C795.761 -109.53 793.585 -113.556 790.842 -117.384C790.213 -117.969 789.086 -118.039 788.207 -117.646C786.87 -117.346 786.246 -116.831 786.05 -116.423C785.819 -113.459 786.525 -103.235 787.269 -97.7316C785.519 -100.424 778.332 -110.873 776.507 -112.691C775.678 -113.121 774.521 -112.673 774.069 -112.514C773.427 -112.288 772.963 -112.041 772.805 -111.646C773.018 -106.931 773.705 -101.11 774.551 -96.4044C775.069 -93.2372 776.344 -87.0712 777.871 -82.4779C779.039 -81.4464 781.103 -82.0863 781.457 -82.8889ZM829.505 -123.621C830.137 -122.91 830.07 -121.53 830.059 -120.594C829.62 -120.397 828.954 -120.121 828.123 -119.83C827.595 -119.644 827.029 -119.445 826.374 -119.258C827.455 -118.111 828.369 -117.076 829.093 -116.1C828.984 -115.808 828.712 -115.373 828.177 -114.846C827.701 -114.51 827.352 -114.175 826.9 -114.016C826.123 -114.295 824.92 -115.187 823.343 -116.541C822.863 -114.888 822.366 -113.527 821.891 -112.343C821.538 -112.261 821.032 -112.253 820.345 -112.521C819.824 -112.677 819.327 -112.884 818.893 -113.156C818.865 -114.079 819.008 -115.485 819.419 -117.453C817.1 -116.935 815.826 -116.7 815.533 -116.809C815.24 -116.918 815.044 -117.358 814.792 -118.075C814.474 -118.981 814.453 -119.525 814.753 -119.757C815.252 -120.145 816.509 -120.67 818.472 -121.359C816.773 -123.179 815.792 -124.404 815.594 -124.97C815.474 -125.31 815.684 -125.68 816.181 -126.194C816.642 -126.694 817.026 -127.168 817.419 -127.137C818.28 -127.1 820.298 -125.095 821.235 -124.237C822.37 -127.645 823.276 -129.532 823.956 -129.77C824.295 -129.89 824.779 -129.72 825.417 -129.351C826.004 -129.006 826.552 -128.774 826.671 -128.434C826.671 -128.434 826.107 -126.54 825.224 -123.136C826.865 -123.415 828.278 -123.615 829.505 -123.621Z" fill="#454545"/>
</svg>
