<svg width="1074" height="432" viewBox="0 0 1074 432" fill="none" xmlns="http://www.w3.org/2000/svg">
<path opacity="0.3" fill-rule="evenodd" clip-rule="evenodd" d="M619.507 142.287C639.669 163.176 653.418 189.433 659.089 217.944C664.935 247.332 661.934 277.794 650.468 305.477C644.332 320.289 635.921 333.949 625.609 346H1011V315.043L1074 373.5L1011 431.957V399H542H510.5H497H0V346H497H510.5V345.925C529.967 345.925 548.996 340.152 565.182 329.337C581.368 318.522 593.983 303.15 601.433 285.166C608.882 267.181 610.831 247.391 607.034 228.298C603.236 209.206 593.862 191.668 580.097 177.903C566.332 164.138 548.794 154.764 529.702 150.966C510.609 147.169 490.819 149.118 472.834 156.567C454.85 164.017 439.478 176.632 428.663 192.818C419.242 206.918 413.647 223.175 412.361 240H441.957L383.5 303L325.043 240H359.186C360.54 212.668 369.277 186.162 384.532 163.331C401.179 138.417 424.84 118.999 452.523 107.532C480.206 96.0656 510.668 93.0654 540.056 98.911C551.125 101.113 561.855 104.532 572.062 109.072C579.131 84.8444 592.207 62.5396 610.373 44.3733C638.785 15.9616 677.32 3.03353e-06 717.5 0C757.68 -3.03353e-06 796.215 15.9616 824.627 44.3733C851.266 71.0123 866.96 106.55 868.814 144H902.957L844.5 207L786.043 144H815.639C813.855 120.64 803.779 98.5854 787.097 81.903C768.639 63.4448 743.604 53.0751 717.5 53.0751C691.396 53.0751 666.361 63.4448 647.903 81.9031C631.629 98.1771 621.643 119.563 619.507 142.287Z" fill="#002B78"/>
</svg>
