<svg width="1200" height="61" viewBox="0 0 1200 61" fill="none" xmlns="http://www.w3.org/2000/svg">
<rect width="1241.22" height="60.8898" transform="translate(-29.9243)" fill="#FFD33F"/>
<path d="M-0.136836 23.9158C0.153185 24.6247 -0.265734 25.6559 -0.523531 26.3648C-0.910225 26.3971 -1.49027 26.4293 -2.19921 26.4293C-2.65035 26.4293 -3.13372 26.4293 -3.68154 26.3971C-3.16594 27.5571 -2.74703 28.5883 -2.457 29.5228C-2.61813 29.7162 -2.94037 29.974 -3.48819 30.2318C-3.93933 30.3607 -4.2938 30.5218 -4.6805 30.5218C-5.19609 30.1029 -5.87281 29.1039 -6.71064 27.6538C-7.51626 28.7817 -8.25742 29.684 -8.93414 30.4574C-9.22416 30.4251 -9.61085 30.2962 -10.062 29.9095C-10.4165 29.6517 -10.7387 29.3617 -10.9965 29.0395C-10.7709 28.3305 -10.2876 27.2993 -9.44973 25.9137C-11.351 25.6881 -12.3822 25.527 -12.5755 25.3659C-12.7689 25.2047 -12.8011 24.8181 -12.8011 24.2058C-12.8011 23.4324 -12.6722 23.0135 -12.3822 22.9168C-11.8988 22.7557 -10.8032 22.6912 -9.12749 22.6912C-9.9331 20.8544 -10.352 19.6621 -10.352 19.1788C-10.352 18.8887 -10.0942 18.6632 -9.57863 18.4054C-9.09526 18.1476 -8.67634 17.8898 -8.38632 18.0187C-7.74183 18.2765 -6.74287 20.3388 -6.2595 21.2411C-4.48715 18.9532 -3.29484 17.7609 -2.7148 17.7609C-2.42478 17.7609 -2.10253 18.0187 -1.71584 18.4698C-1.36137 18.8887 -1.0069 19.211 -1.0069 19.501C-1.0069 19.501 -1.94141 20.79 -3.52041 23.1424C-2.19921 23.368 -1.07135 23.5935 -0.136836 23.9158ZM28.9307 41.3493C30.3486 40.447 31.7987 38.4813 31.8954 36.7411C32.0565 34.711 31.3798 32.9064 30.3486 31.7141C28.9307 30.1996 27.3195 29.2006 25.5149 28.7172C23.5492 28.2339 21.5835 27.6538 19.9401 26.7838C18.8444 25.8815 19.1667 24.3347 19.36 23.8835C19.4567 23.4002 19.7789 22.2401 21.8735 21.4023C23.9681 21.1122 25.7727 21.4989 26.7717 21.7889C27.8351 22.2079 28.7374 22.7879 29.5108 23.4002C29.7686 23.4002 30.3164 23.1102 30.7997 22.7235C31.2187 22.3368 31.412 21.5956 31.5087 20.8544C30.1553 19.7266 29.3496 19.0499 28.1896 18.6309C26.9972 18.1153 25.9016 17.7287 24.6126 17.5675C23.2914 17.4064 22.1636 17.5675 21.0679 17.8253C19.9723 18.2442 18.9411 18.7598 18.1033 19.6299C17.2654 20.3066 16.7498 21.2411 16.4276 22.0467C15.912 22.9813 15.6542 23.9158 15.5253 24.9792C15.4609 25.817 15.5253 26.5904 15.6542 27.2993C15.7831 28.0727 16.0731 28.7172 16.5887 29.3295C18.0066 30.7474 19.5856 31.6497 21.4224 32.0364C23.3236 32.4553 26.9328 32.8097 27.8029 35.1944C28.7051 37.869 24.4193 40.9948 19.6178 37.9657C19.2311 37.6112 18.3288 36.6767 18.1033 36.2578C18.1033 36.2578 16.7821 36.58 15.7831 37.4501C15.4609 38.6102 17.0399 40.4792 18.3933 41.7359C21.1968 43.4116 26.0627 43.2505 28.9307 41.3493ZM61.2011 41.8004C62.8768 41.3493 64.3913 40.3825 65.9703 39.2869C66.647 38.4168 65.6803 36.8378 64.488 36.5156C63.6179 36.4833 62.909 37.1601 61.9423 37.3856C60.9755 37.8368 57.3019 39.5125 54.5951 37.5468C52.0171 35.71 52.1138 32.0041 52.4038 29.0395C52.6938 27.6538 52.4682 25.527 54.2728 23.4968C54.8206 22.8524 57.0763 20.8867 60.6855 21.9178C61.4911 22.1112 63.0701 22.6268 63.7146 22.9813C64.6813 23.2068 66.357 21.2089 65.4547 20.4033C64.6491 19.3721 63.2312 18.6954 62.2323 18.3409C60.8144 17.8576 57.882 17.4386 55.3684 18.212C51.5337 19.4043 49.278 22.7557 48.8591 24.6569C48.3113 26.0426 48.1501 28.2016 48.0857 30.0062C48.0857 31.8108 48.0857 33.4542 48.3757 34.9043C48.7624 36.4189 49.1491 37.9979 50.0836 39.2224C50.857 40.1569 51.5337 40.7048 53.0483 41.4137C55.0784 42.3804 58.5909 42.5093 61.2011 41.8004ZM83.6337 42.4449C83.8915 42.4449 84.1815 42.4449 84.5359 42.4449C84.8582 42.4449 85.5027 42.1549 85.6638 42.1226C85.9216 40.7692 85.9538 35.3555 86.0827 33.7765L89.5307 34.0987C90.5942 35.9033 91.8509 37.3212 93.2043 38.6746C94.5578 40.028 96.2335 41.317 97.458 42.2838L99.327 40.1247C98.6181 38.9969 96.1368 35.3233 93.9777 33.5187C94.5578 33.0353 96.2335 32.0364 96.6201 31.6819C97.3935 30.7796 99.1659 29.7484 99.1659 25.4625C99.1981 22.8846 98.1347 20.9511 97.5547 20.2099C96.8457 19.3399 96.1046 18.6632 95.2667 18.212C92.8177 16.8586 89.3374 17.1164 88.0806 17.3742C85.1482 17.922 82.9247 19.1788 82.6991 19.3077C82.5058 20.2744 82.248 26.6871 82.1836 29.6517C82.1191 31.263 82.4413 39.0613 82.4736 39.8025C82.6025 40.6725 82.6347 41.5426 82.7314 42.2515L83.6337 42.4449ZM86.2438 30.1673V21.8534C88.0806 21.2089 91.2386 21.1122 92.0443 21.2734C93.5266 21.6278 95.5245 22.8846 95.5567 25.3981C95.5567 29.1361 92.2376 30.5218 86.2438 30.1673ZM122.207 42.8316C123.625 42.9605 124.979 42.9605 126.493 42.4449C127.685 41.9615 129.425 40.8659 130.553 39.3513C131.907 37.1923 133.26 34.8077 133.131 28.3628C132.874 23.1102 132.551 19.9199 132.132 18.1476L131.617 17.8253C131.133 17.6964 130.714 17.6964 130.328 17.8253C129.877 17.922 129.49 18.2442 129.2 18.7276C129.716 24.3669 129.909 28.2983 129.393 31.4885C128.427 37.2567 125.849 38.2235 122.852 38.0946C120.145 37.9979 119.017 35.291 118.824 32.4875C118.566 30.3929 118.405 28.395 118.405 26.2359C118.34 23.1102 118.727 20.1133 118.534 18.7276C117.277 18.5343 116.375 18.6954 115.859 19.1143C115.633 19.9521 115.279 23.9802 115.279 25.8492C115.118 33.1964 116.149 37.0956 117.535 39.6413C118.211 40.6081 119.758 42.3804 122.207 42.8316ZM151.502 42.0582C152.05 39.3191 153.758 29.6195 154.306 26.2037C155.111 28.8783 157.915 39.3513 158.559 42.0582H160.944C162.555 38.3846 164.94 28.1694 165.745 25.3014C166.454 27.9761 167.84 38.9969 168.388 41.8004C169.322 42.2515 171.288 41.5426 171.481 41.2848C171.159 37.3856 170.676 33.2609 170.128 29.4262C169.483 25.6237 168.903 21.9823 167.84 18.3409C167.518 17.7287 166.68 17.3742 165.906 17.4386C164.811 17.3097 164.199 17.5353 163.941 17.7931C162.974 19.9844 160.783 27.9438 159.88 32.3264C159.268 29.8129 156.594 19.9521 155.691 18.0831C155.176 17.5353 154.177 17.5675 153.79 17.5675C153.242 17.5675 152.823 17.632 152.598 17.8898C151.502 21.5311 150.471 26.1393 149.859 29.9418C149.407 32.4875 148.731 37.5145 148.666 41.4137C149.279 42.5093 151.019 42.5738 151.502 42.0582ZM198.894 23.9158C199.184 24.6247 198.765 25.6559 198.507 26.3648C198.12 26.3971 197.54 26.4293 196.831 26.4293C196.38 26.4293 195.897 26.4293 195.349 26.3971C195.865 27.5571 196.284 28.5883 196.574 29.5228C196.413 29.7162 196.09 29.974 195.542 30.2318C195.091 30.3607 194.737 30.5218 194.35 30.5218C193.835 30.1029 193.158 29.1039 192.32 27.6538C191.514 28.7817 190.773 29.684 190.097 30.4574C189.807 30.4251 189.42 30.2962 188.969 29.9095C188.614 29.6517 188.292 29.3617 188.034 29.0395C188.26 28.3305 188.743 27.2993 189.581 25.9137C187.68 25.6881 186.649 25.527 186.455 25.3659C186.262 25.2047 186.23 24.8181 186.23 24.2058C186.23 23.4324 186.358 23.0135 186.649 22.9168C187.132 22.7557 188.228 22.6912 189.903 22.6912C189.098 20.8544 188.679 19.6621 188.679 19.1788C188.679 18.8887 188.936 18.6632 189.452 18.4054C189.935 18.1476 190.354 17.8898 190.644 18.0187C191.289 18.2765 192.288 20.3388 192.771 21.2411C194.544 18.9532 195.736 17.7609 196.316 17.7609C196.606 17.7609 196.928 18.0187 197.315 18.4698C197.669 18.8887 198.024 19.211 198.024 19.501C198.024 19.501 197.089 20.79 195.51 23.1424C196.831 23.368 197.959 23.5935 198.894 23.9158ZM227.961 41.3493C229.379 40.447 230.829 38.4813 230.926 36.7411C231.087 34.711 230.41 32.9064 229.379 31.7141C227.961 30.1996 226.35 29.2006 224.546 28.7172C222.58 28.2339 220.614 27.6538 218.971 26.7838C217.875 25.8815 218.197 24.3347 218.391 23.8835C218.487 23.4002 218.81 22.2401 220.904 21.4023C222.999 21.1122 224.803 21.4989 225.802 21.7889C226.866 22.2079 227.768 22.7879 228.541 23.4002C228.799 23.4002 229.347 23.1102 229.83 22.7235C230.249 22.3368 230.443 21.5956 230.539 20.8544C229.186 19.7266 228.38 19.0499 227.22 18.6309C226.028 18.1153 224.932 17.7287 223.643 17.5675C222.322 17.4064 221.194 17.5675 220.099 17.8253C219.003 18.2442 217.972 18.7598 217.134 19.6299C216.296 20.3066 215.781 21.2411 215.458 22.0467C214.943 22.9813 214.685 23.9158 214.556 24.9792C214.492 25.817 214.556 26.5904 214.685 27.2993C214.814 28.0727 215.104 28.7172 215.619 29.3295C217.037 30.7474 218.616 31.6497 220.453 32.0364C222.354 32.4553 225.963 32.8097 226.834 35.1944C227.736 37.869 223.45 40.9948 218.648 37.9657C218.262 37.6112 217.36 36.6767 217.134 36.2578C217.134 36.2578 215.813 36.58 214.814 37.4501C214.492 38.6102 216.071 40.4792 217.424 41.7359C220.227 43.4116 225.093 43.2505 227.961 41.3493ZM260.232 41.8004C261.907 41.3493 263.422 40.3825 265.001 39.2869C265.678 38.4168 264.711 36.8378 263.519 36.5156C262.649 36.4833 261.94 37.1601 260.973 37.3856C260.006 37.8368 256.333 39.5125 253.626 37.5468C251.048 35.71 251.144 32.0041 251.434 29.0395C251.724 27.6538 251.499 25.527 253.303 23.4968C253.851 22.8524 256.107 20.8867 259.716 21.9178C260.522 22.1112 262.101 22.6268 262.745 22.9813C263.712 23.2068 265.388 21.2089 264.485 20.4033C263.68 19.3721 262.262 18.6954 261.263 18.3409C259.845 17.8576 256.913 17.4386 254.399 18.212C250.564 19.4043 248.309 22.7557 247.89 24.6569C247.342 26.0426 247.181 28.2016 247.116 30.0062C247.116 31.8108 247.116 33.4542 247.406 34.9043C247.793 36.4189 248.18 37.9979 249.114 39.2224C249.888 40.1569 250.564 40.7048 252.079 41.4137C254.109 42.3804 257.622 42.5093 260.232 41.8004ZM282.664 42.4449C282.922 42.4449 283.212 42.4449 283.567 42.4449C283.889 42.4449 284.533 42.1549 284.694 42.1226C284.952 40.7692 284.984 35.3555 285.113 33.7765L288.561 34.0987C289.625 35.9033 290.882 37.3212 292.235 38.6746C293.588 40.028 295.264 41.317 296.489 42.2838L298.358 40.1247C297.649 38.9969 295.167 35.3233 293.008 33.5187C293.588 33.0353 295.264 32.0364 295.651 31.6819C296.424 30.7796 298.197 29.7484 298.197 25.4625C298.229 22.8846 297.165 20.9511 296.585 20.2099C295.876 19.3399 295.135 18.6632 294.297 18.212C291.848 16.8586 288.368 17.1164 287.111 17.3742C284.179 17.922 281.955 19.1788 281.73 19.3077C281.536 20.2744 281.279 26.6871 281.214 29.6517C281.15 31.263 281.472 39.0613 281.504 39.8025C281.633 40.6725 281.665 41.5426 281.762 42.2515L282.664 42.4449ZM285.275 30.1673V21.8534C287.111 21.2089 290.269 21.1122 291.075 21.2734C292.557 21.6278 294.555 22.8846 294.587 25.3981C294.587 29.1361 291.268 30.5218 285.275 30.1673ZM321.238 42.8316C322.656 42.9605 324.009 42.9605 325.524 42.4449C326.716 41.9615 328.456 40.8659 329.584 39.3513C330.937 37.1923 332.291 34.8077 332.162 28.3628C331.904 23.1102 331.582 19.9199 331.163 18.1476L330.647 17.8253C330.164 17.6964 329.745 17.6964 329.358 17.8253C328.907 17.922 328.521 18.2442 328.231 18.7276C328.746 24.3669 328.94 28.2983 328.424 31.4885C327.457 37.2567 324.879 38.2235 321.882 38.0946C319.175 37.9979 318.048 35.291 317.854 32.4875C317.596 30.3929 317.435 28.395 317.435 26.2359C317.371 23.1102 317.758 20.1133 317.564 18.7276C316.308 18.5343 315.405 18.6954 314.89 19.1143C314.664 19.9521 314.31 23.9802 314.31 25.8492C314.148 33.1964 315.18 37.0956 316.565 39.6413C317.242 40.6081 318.789 42.3804 321.238 42.8316ZM350.533 42.0582C351.081 39.3191 352.788 29.6195 353.336 26.2037C354.142 28.8783 356.945 39.3513 357.59 42.0582H359.975C361.586 38.3846 363.97 28.1694 364.776 25.3014C365.485 27.9761 366.871 38.9969 367.418 41.8004C368.353 42.2515 370.319 41.5426 370.512 41.2848C370.19 37.3856 369.706 33.2609 369.159 29.4262C368.514 25.6237 367.934 21.9823 366.871 18.3409C366.548 17.7287 365.711 17.3742 364.937 17.4386C363.841 17.3097 363.229 17.5353 362.971 17.7931C362.005 19.9844 359.813 27.9438 358.911 32.3264C358.299 29.8129 355.624 19.9521 354.722 18.0831C354.206 17.5353 353.207 17.5675 352.821 17.5675C352.273 17.5675 351.854 17.632 351.628 17.8898C350.533 21.5311 349.502 26.1393 348.889 29.9418C348.438 32.4875 347.761 37.5145 347.697 41.4137C348.309 42.5093 350.049 42.5738 350.533 42.0582ZM397.925 23.9158C398.215 24.6247 397.796 25.6559 397.538 26.3648C397.151 26.3971 396.571 26.4293 395.862 26.4293C395.411 26.4293 394.928 26.4293 394.38 26.3971C394.895 27.5571 395.314 28.5883 395.604 29.5228C395.443 29.7162 395.121 29.974 394.573 30.2318C394.122 30.3607 393.768 30.5218 393.381 30.5218C392.865 30.1029 392.189 29.1039 391.351 27.6538C390.545 28.7817 389.804 29.684 389.127 30.4574C388.837 30.4251 388.45 30.2962 387.999 29.9095C387.645 29.6517 387.323 29.3617 387.065 29.0395C387.29 28.3305 387.774 27.2993 388.612 25.9137C386.71 25.6881 385.679 25.527 385.486 25.3659C385.292 25.2047 385.26 24.8181 385.26 24.2058C385.26 23.4324 385.389 23.0135 385.679 22.9168C386.163 22.7557 387.258 22.6912 388.934 22.6912C388.128 20.8544 387.709 19.6621 387.709 19.1788C387.709 18.8887 387.967 18.6632 388.483 18.4054C388.966 18.1476 389.385 17.8898 389.675 18.0187C390.32 18.2765 391.318 20.3388 391.802 21.2411C393.574 18.9532 394.766 17.7609 395.347 17.7609C395.637 17.7609 395.959 18.0187 396.346 18.4698C396.7 18.8887 397.054 19.211 397.054 19.501C397.054 19.501 396.12 20.79 394.541 23.1424C395.862 23.368 396.99 23.5935 397.925 23.9158ZM426.992 41.3493C428.41 40.447 429.86 38.4813 429.957 36.7411C430.118 34.711 429.441 32.9064 428.41 31.7141C426.992 30.1996 425.381 29.2006 423.576 28.7172C421.611 28.2339 419.645 27.6538 418.001 26.7838C416.906 25.8815 417.228 24.3347 417.421 23.8835C417.518 23.4002 417.84 22.2401 419.935 21.4023C422.029 21.1122 423.834 21.4989 424.833 21.7889C425.896 22.2079 426.799 22.7879 427.572 23.4002C427.83 23.4002 428.378 23.1102 428.861 22.7235C429.28 22.3368 429.473 21.5956 429.57 20.8544C428.217 19.7266 427.411 19.0499 426.251 18.6309C425.059 18.1153 423.963 17.7287 422.674 17.5675C421.353 17.4064 420.225 17.5675 419.129 17.8253C418.034 18.2442 417.002 18.7598 416.165 19.6299C415.327 20.3066 414.811 21.2411 414.489 22.0467C413.973 22.9813 413.716 23.9158 413.587 24.9792C413.522 25.817 413.587 26.5904 413.716 27.2993C413.844 28.0727 414.134 28.7172 414.65 29.3295C416.068 30.7474 417.647 31.6497 419.484 32.0364C421.385 32.4553 424.994 32.8097 425.864 35.1944C426.766 37.869 422.481 40.9948 417.679 37.9657C417.292 37.6112 416.39 36.6767 416.165 36.2578C416.165 36.2578 414.843 36.58 413.844 37.4501C413.522 38.6102 415.101 40.4792 416.455 41.7359C419.258 43.4116 424.124 43.2505 426.992 41.3493ZM459.262 41.8004C460.938 41.3493 462.453 40.3825 464.032 39.2869C464.708 38.4168 463.742 36.8378 462.549 36.5156C461.679 36.4833 460.97 37.1601 460.004 37.3856C459.037 37.8368 455.363 39.5125 452.656 37.5468C450.078 35.71 450.175 32.0041 450.465 29.0395C450.755 27.6538 450.53 25.527 452.334 23.4968C452.882 22.8524 455.138 20.8867 458.747 21.9178C459.552 22.1112 461.131 22.6268 461.776 22.9813C462.743 23.2068 464.418 21.2089 463.516 20.4033C462.71 19.3721 461.293 18.6954 460.294 18.3409C458.876 17.8576 455.943 17.4386 453.43 18.212C449.595 19.4043 447.339 22.7557 446.92 24.6569C446.373 26.0426 446.211 28.2016 446.147 30.0062C446.147 31.8108 446.147 33.4542 446.437 34.9043C446.824 36.4189 447.21 37.9979 448.145 39.2224C448.918 40.1569 449.595 40.7048 451.11 41.4137C453.14 42.3804 456.652 42.5093 459.262 41.8004ZM481.695 42.4449C481.953 42.4449 482.243 42.4449 482.597 42.4449C482.92 42.4449 483.564 42.1549 483.725 42.1226C483.983 40.7692 484.015 35.3555 484.144 33.7765L487.592 34.0987C488.655 35.9033 489.912 37.3212 491.266 38.6746C492.619 40.028 494.295 41.317 495.519 42.2838L497.388 40.1247C496.679 38.9969 494.198 35.3233 492.039 33.5187C492.619 33.0353 494.295 32.0364 494.681 31.6819C495.455 30.7796 497.227 29.7484 497.227 25.4625C497.259 22.8846 496.196 20.9511 495.616 20.2099C494.907 19.3399 494.166 18.6632 493.328 18.212C490.879 16.8586 487.399 17.1164 486.142 17.3742C483.21 17.922 480.986 19.1788 480.76 19.3077C480.567 20.2744 480.309 26.6871 480.245 29.6517C480.18 31.263 480.503 39.0613 480.535 39.8025C480.664 40.6725 480.696 41.5426 480.793 42.2515L481.695 42.4449ZM484.305 30.1673V21.8534C486.142 21.2089 489.3 21.1122 490.106 21.2734C491.588 21.6278 493.586 22.8846 493.618 25.3981C493.618 29.1361 490.299 30.5218 484.305 30.1673ZM520.269 42.8316C521.686 42.9605 523.04 42.9605 524.554 42.4449C525.747 41.9615 527.487 40.8659 528.615 39.3513C529.968 37.1923 531.322 34.8077 531.193 28.3628C530.935 23.1102 530.613 19.9199 530.194 18.1476L529.678 17.8253C529.195 17.6964 528.776 17.6964 528.389 17.8253C527.938 17.922 527.551 18.2442 527.261 18.7276C527.777 24.3669 527.97 28.2983 527.455 31.4885C526.488 37.2567 523.91 38.2235 520.913 38.0946C518.206 37.9979 517.078 35.291 516.885 32.4875C516.627 30.3929 516.466 28.395 516.466 26.2359C516.402 23.1102 516.788 20.1133 516.595 18.7276C515.338 18.5343 514.436 18.6954 513.92 19.1143C513.695 19.9521 513.34 23.9802 513.34 25.8492C513.179 33.1964 514.21 37.0956 515.596 39.6413C516.273 40.6081 517.819 42.3804 520.269 42.8316ZM549.563 42.0582C550.111 39.3191 551.819 29.6195 552.367 26.2037C553.173 28.8783 555.976 39.3513 556.621 42.0582H559.005C560.616 38.3846 563.001 28.1694 563.807 25.3014C564.516 27.9761 565.901 38.9969 566.449 41.8004C567.384 42.2515 569.349 41.5426 569.543 41.2848C569.22 37.3856 568.737 33.2609 568.189 29.4262C567.545 25.6237 566.965 21.9823 565.901 18.3409C565.579 17.7287 564.741 17.3742 563.968 17.4386C562.872 17.3097 562.26 17.5353 562.002 17.7931C561.035 19.9844 558.844 27.9438 557.942 32.3264C557.33 29.8129 554.655 19.9521 553.753 18.0831C553.237 17.5353 552.238 17.5675 551.851 17.5675C551.304 17.5675 550.885 17.632 550.659 17.8898C549.563 21.5311 548.532 26.1393 547.92 29.9418C547.469 32.4875 546.792 37.5145 546.728 41.4137C547.34 42.5093 549.08 42.5738 549.563 42.0582ZM596.955 23.9158C597.245 24.6247 596.826 25.6559 596.568 26.3648C596.182 26.3971 595.602 26.4293 594.893 26.4293C594.442 26.4293 593.958 26.4293 593.41 26.3971C593.926 27.5571 594.345 28.5883 594.635 29.5228C594.474 29.7162 594.152 29.974 593.604 30.2318C593.153 30.3607 592.798 30.5218 592.411 30.5218C591.896 30.1029 591.219 29.1039 590.381 27.6538C589.576 28.7817 588.835 29.684 588.158 30.4574C587.868 30.4251 587.481 30.2962 587.03 29.9095C586.676 29.6517 586.353 29.3617 586.095 29.0395C586.321 28.3305 586.804 27.2993 587.642 25.9137C585.741 25.6881 584.71 25.527 584.516 25.3659C584.323 25.2047 584.291 24.8181 584.291 24.2058C584.291 23.4324 584.42 23.0135 584.71 22.9168C585.193 22.7557 586.289 22.6912 587.964 22.6912C587.159 20.8544 586.74 19.6621 586.74 19.1788C586.74 18.8887 586.998 18.6632 587.513 18.4054C587.997 18.1476 588.416 17.8898 588.706 18.0187C589.35 18.2765 590.349 20.3388 590.832 21.2411C592.605 18.9532 593.797 17.7609 594.377 17.7609C594.667 17.7609 594.989 18.0187 595.376 18.4698C595.731 18.8887 596.085 19.211 596.085 19.501C596.085 19.501 595.151 20.79 593.572 23.1424C594.893 23.368 596.021 23.5935 596.955 23.9158ZM626.023 41.3493C627.441 40.447 628.891 38.4813 628.987 36.7411C629.149 34.711 628.472 32.9064 627.441 31.7141C626.023 30.1996 624.412 29.2006 622.607 28.7172C620.641 28.2339 618.676 27.6538 617.032 26.7838C615.936 25.8815 616.259 24.3347 616.452 23.8835C616.549 23.4002 616.871 22.2401 618.966 21.4023C621.06 21.1122 622.865 21.4989 623.864 21.7889C624.927 22.2079 625.829 22.7879 626.603 23.4002C626.861 23.4002 627.408 23.1102 627.892 22.7235C628.311 22.3368 628.504 21.5956 628.601 20.8544C627.247 19.7266 626.442 19.0499 625.282 18.6309C624.089 18.1153 622.994 17.7287 621.705 17.5675C620.383 17.4064 619.256 17.5675 618.16 17.8253C617.064 18.2442 616.033 18.7598 615.195 19.6299C614.357 20.3066 613.842 21.2411 613.52 22.0467C613.004 22.9813 612.746 23.9158 612.617 24.9792C612.553 25.817 612.617 26.5904 612.746 27.2993C612.875 28.0727 613.165 28.7172 613.681 29.3295C615.099 30.7474 616.678 31.6497 618.514 32.0364C620.416 32.4553 624.025 32.8097 624.895 35.1944C625.797 37.869 621.511 40.9948 616.71 37.9657C616.323 37.6112 615.421 36.6767 615.195 36.2578C615.195 36.2578 613.874 36.58 612.875 37.4501C612.553 38.6102 614.132 40.4792 615.485 41.7359C618.289 43.4116 623.155 43.2505 626.023 41.3493ZM658.293 41.8004C659.969 41.3493 661.483 40.3825 663.062 39.2869C663.739 38.4168 662.772 36.8378 661.58 36.5156C660.71 36.4833 660.001 37.1601 659.034 37.3856C658.068 37.8368 654.394 39.5125 651.687 37.5468C649.109 35.71 649.206 32.0041 649.496 29.0395C649.786 27.6538 649.56 25.527 651.365 23.4968C651.913 22.8524 654.168 20.8867 657.777 21.9178C658.583 22.1112 660.162 22.6268 660.807 22.9813C661.773 23.2068 663.449 21.2089 662.547 20.4033C661.741 19.3721 660.323 18.6954 659.324 18.3409C657.906 17.8576 654.974 17.4386 652.46 18.212C648.626 19.4043 646.37 22.7557 645.951 24.6569C645.403 26.0426 645.242 28.2016 645.178 30.0062C645.178 31.8108 645.178 33.4542 645.468 34.9043C645.854 36.4189 646.241 37.9979 647.176 39.2224C647.949 40.1569 648.626 40.7048 650.14 41.4137C652.17 42.3804 655.683 42.5093 658.293 41.8004ZM680.726 42.4449C680.983 42.4449 681.273 42.4449 681.628 42.4449C681.95 42.4449 682.595 42.1549 682.756 42.1226C683.014 40.7692 683.046 35.3555 683.175 33.7765L686.623 34.0987C687.686 35.9033 688.943 37.3212 690.296 38.6746C691.65 40.028 693.325 41.317 694.55 42.2838L696.419 40.1247C695.71 38.9969 693.229 35.3233 691.07 33.5187C691.65 33.0353 693.325 32.0364 693.712 31.6819C694.486 30.7796 696.258 29.7484 696.258 25.4625C696.29 22.8846 695.227 20.9511 694.647 20.2099C693.938 19.3399 693.197 18.6632 692.359 18.212C689.91 16.8586 686.429 17.1164 685.173 17.3742C682.24 17.922 680.017 19.1788 679.791 19.3077C679.598 20.2744 679.34 26.6871 679.276 29.6517C679.211 31.263 679.533 39.0613 679.566 39.8025C679.694 40.6725 679.727 41.5426 679.823 42.2515L680.726 42.4449ZM683.336 30.1673V21.8534C685.173 21.2089 688.331 21.1122 689.136 21.2734C690.619 21.6278 692.616 22.8846 692.649 25.3981C692.649 29.1361 689.33 30.5218 683.336 30.1673ZM719.299 42.8316C720.717 42.9605 722.071 42.9605 723.585 42.4449C724.777 41.9615 726.518 40.8659 727.645 39.3513C728.999 37.1923 730.352 34.8077 730.223 28.3628C729.966 23.1102 729.643 19.9199 729.224 18.1476L728.709 17.8253C728.225 17.6964 727.806 17.6964 727.42 17.8253C726.969 17.922 726.582 18.2442 726.292 18.7276C726.808 24.3669 727.001 28.2983 726.485 31.4885C725.519 37.2567 722.941 38.2235 719.944 38.0946C717.237 37.9979 716.109 35.291 715.916 32.4875C715.658 30.3929 715.497 28.395 715.497 26.2359C715.432 23.1102 715.819 20.1133 715.626 18.7276C714.369 18.5343 713.467 18.6954 712.951 19.1143C712.725 19.9521 712.371 23.9802 712.371 25.8492C712.21 33.1964 713.241 37.0956 714.627 39.6413C715.303 40.6081 716.85 42.3804 719.299 42.8316ZM748.594 42.0582C749.142 39.3191 750.85 29.6195 751.398 26.2037C752.203 28.8783 755.007 39.3513 755.651 42.0582H758.036C759.647 38.3846 762.032 28.1694 762.837 25.3014C763.546 27.9761 764.932 38.9969 765.48 41.8004C766.414 42.2515 768.38 41.5426 768.573 41.2848C768.251 37.3856 767.768 33.2609 767.22 29.4262C766.575 25.6237 765.995 21.9823 764.932 18.3409C764.61 17.7287 763.772 17.3742 762.998 17.4386C761.903 17.3097 761.291 17.5353 761.033 17.7931C760.066 19.9844 757.875 27.9438 756.972 32.3264C756.36 29.8129 753.686 19.9521 752.783 18.0831C752.268 17.5353 751.269 17.5675 750.882 17.5675C750.334 17.5675 749.915 17.632 749.69 17.8898C748.594 21.5311 747.563 26.1393 746.951 29.9418C746.499 32.4875 745.823 37.5145 745.758 41.4137C746.371 42.5093 748.111 42.5738 748.594 42.0582ZM795.986 23.9158C796.276 24.6247 795.857 25.6559 795.599 26.3648C795.212 26.3971 794.632 26.4293 793.923 26.4293C793.472 26.4293 792.989 26.4293 792.441 26.3971C792.957 27.5571 793.376 28.5883 793.666 29.5228C793.505 29.7162 793.182 29.974 792.634 30.2318C792.183 30.3607 791.829 30.5218 791.442 30.5218C790.927 30.1029 790.25 29.1039 789.412 27.6538C788.606 28.7817 787.865 29.684 787.189 30.4574C786.899 30.4251 786.512 30.2962 786.061 29.9095C785.706 29.6517 785.384 29.3617 785.126 29.0395C785.352 28.3305 785.835 27.2993 786.673 25.9137C784.772 25.6881 783.741 25.527 783.547 25.3659C783.354 25.2047 783.322 24.8181 783.322 24.2058C783.322 23.4324 783.45 23.0135 783.741 22.9168C784.224 22.7557 785.32 22.6912 786.995 22.6912C786.19 20.8544 785.771 19.6621 785.771 19.1788C785.771 18.8887 786.028 18.6632 786.544 18.4054C787.027 18.1476 787.446 17.8898 787.736 18.0187C788.381 18.2765 789.38 20.3388 789.863 21.2411C791.636 18.9532 792.828 17.7609 793.408 17.7609C793.698 17.7609 794.02 18.0187 794.407 18.4698C794.761 18.8887 795.116 19.211 795.116 19.501C795.116 19.501 794.181 20.79 792.602 23.1424C793.923 23.368 795.051 23.5935 795.986 23.9158ZM825.053 41.3493C826.471 40.447 827.921 38.4813 828.018 36.7411C828.179 34.711 827.502 32.9064 826.471 31.7141C825.053 30.1996 823.442 29.2006 821.638 28.7172C819.672 28.2339 817.706 27.6538 816.063 26.7838C814.967 25.8815 815.289 24.3347 815.483 23.8835C815.579 23.4002 815.902 22.2401 817.996 21.4023C820.091 21.1122 821.895 21.4989 822.894 21.7889C823.958 22.2079 824.86 22.7879 825.633 23.4002C825.891 23.4002 826.439 23.1102 826.922 22.7235C827.341 22.3368 827.535 21.5956 827.631 20.8544C826.278 19.7266 825.472 19.0499 824.312 18.6309C823.12 18.1153 822.024 17.7287 820.735 17.5675C819.414 17.4064 818.286 17.5675 817.191 17.8253C816.095 18.2442 815.064 18.7598 814.226 19.6299C813.388 20.3066 812.872 21.2411 812.55 22.0467C812.035 22.9813 811.777 23.9158 811.648 24.9792C811.584 25.817 811.648 26.5904 811.777 27.2993C811.906 28.0727 812.196 28.7172 812.711 29.3295C814.129 30.7474 815.708 31.6497 817.545 32.0364C819.446 32.4553 823.055 32.8097 823.926 35.1944C824.828 37.869 820.542 40.9948 815.74 37.9657C815.354 37.6112 814.452 36.6767 814.226 36.2578C814.226 36.2578 812.905 36.58 811.906 37.4501C811.584 38.6102 813.163 40.4792 814.516 41.7359C817.319 43.4116 822.185 43.2505 825.053 41.3493ZM857.324 41.8004C858.999 41.3493 860.514 40.3825 862.093 39.2869C862.77 38.4168 861.803 36.8378 860.611 36.5156C859.741 36.4833 859.032 37.1601 858.065 37.3856C857.098 37.8368 853.425 39.5125 850.718 37.5468C848.14 35.71 848.236 32.0041 848.526 29.0395C848.816 27.6538 848.591 25.527 850.395 23.4968C850.943 22.8524 853.199 20.8867 856.808 21.9178C857.614 22.1112 859.193 22.6268 859.837 22.9813C860.804 23.2068 862.48 21.2089 861.577 20.4033C860.772 19.3721 859.354 18.6954 858.355 18.3409C856.937 17.8576 854.005 17.4386 851.491 18.212C847.656 19.4043 845.401 22.7557 844.982 24.6569C844.434 26.0426 844.273 28.2016 844.208 30.0062C844.208 31.8108 844.208 33.4542 844.498 34.9043C844.885 36.4189 845.272 37.9979 846.206 39.2224C846.98 40.1569 847.656 40.7048 849.171 41.4137C851.201 42.3804 854.714 42.5093 857.324 41.8004ZM879.756 42.4449C880.014 42.4449 880.304 42.4449 880.659 42.4449C880.981 42.4449 881.625 42.1549 881.786 42.1226C882.044 40.7692 882.077 35.3555 882.205 33.7765L885.653 34.0987C886.717 35.9033 887.974 37.3212 889.327 38.6746C890.68 40.028 892.356 41.317 893.581 42.2838L895.45 40.1247C894.741 38.9969 892.259 35.3233 890.1 33.5187C890.68 33.0353 892.356 32.0364 892.743 31.6819C893.516 30.7796 895.289 29.7484 895.289 25.4625C895.321 22.8846 894.257 20.9511 893.677 20.2099C892.968 19.3399 892.227 18.6632 891.389 18.212C888.94 16.8586 885.46 17.1164 884.203 17.3742C881.271 17.922 879.047 19.1788 878.822 19.3077C878.628 20.2744 878.371 26.6871 878.306 29.6517C878.242 31.263 878.564 39.0613 878.596 39.8025C878.725 40.6725 878.757 41.5426 878.854 42.2515L879.756 42.4449ZM882.367 30.1673V21.8534C884.203 21.2089 887.361 21.1122 888.167 21.2734C889.649 21.6278 891.647 22.8846 891.679 25.3981C891.679 29.1361 888.36 30.5218 882.367 30.1673ZM918.33 42.8316C919.748 42.9605 921.101 42.9605 922.616 42.4449C923.808 41.9615 925.548 40.8659 926.676 39.3513C928.029 37.1923 929.383 34.8077 929.254 28.3628C928.996 23.1102 928.674 19.9199 928.255 18.1476L927.739 17.8253C927.256 17.6964 926.837 17.6964 926.45 17.8253C925.999 17.922 925.613 18.2442 925.323 18.7276C925.838 24.3669 926.032 28.2983 925.516 31.4885C924.549 37.2567 921.971 38.2235 918.974 38.0946C916.267 37.9979 915.14 35.291 914.946 32.4875C914.688 30.3929 914.527 28.395 914.527 26.2359C914.463 23.1102 914.85 20.1133 914.656 18.7276C913.399 18.5343 912.497 18.6954 911.982 19.1143C911.756 19.9521 911.402 23.9802 911.402 25.8492C911.24 33.1964 912.272 37.0956 913.657 39.6413C914.334 40.6081 915.881 42.3804 918.33 42.8316ZM947.625 42.0582C948.173 39.3191 949.88 29.6195 950.428 26.2037C951.234 28.8783 954.037 39.3513 954.682 42.0582H957.067C958.678 38.3846 961.062 28.1694 961.868 25.3014C962.577 27.9761 963.963 38.9969 964.51 41.8004C965.445 42.2515 967.411 41.5426 967.604 41.2848C967.282 37.3856 966.798 33.2609 966.251 29.4262C965.606 25.6237 965.026 21.9823 963.963 18.3409C963.64 17.7287 962.803 17.3742 962.029 17.4386C960.934 17.3097 960.321 17.5353 960.063 17.7931C959.097 19.9844 956.905 27.9438 956.003 32.3264C955.391 29.8129 952.716 19.9521 951.814 18.0831C951.298 17.5353 950.299 17.5675 949.913 17.5675C949.365 17.5675 948.946 17.632 948.72 17.8898C947.625 21.5311 946.594 26.1393 945.981 29.9418C945.53 32.4875 944.853 37.5145 944.789 41.4137C945.401 42.5093 947.141 42.5738 947.625 42.0582ZM995.016 23.9158C995.307 24.6247 994.888 25.6559 994.63 26.3648C994.243 26.3971 993.663 26.4293 992.954 26.4293C992.503 26.4293 992.02 26.4293 991.472 26.3971C991.987 27.5571 992.406 28.5883 992.696 29.5228C992.535 29.7162 992.213 29.974 991.665 30.2318C991.214 30.3607 990.86 30.5218 990.473 30.5218C989.957 30.1029 989.281 29.1039 988.443 27.6538C987.637 28.7817 986.896 29.684 986.219 30.4574C985.929 30.4251 985.542 30.2962 985.091 29.9095C984.737 29.6517 984.415 29.3617 984.157 29.0395C984.382 28.3305 984.866 27.2993 985.704 25.9137C983.802 25.6881 982.771 25.527 982.578 25.3659C982.384 25.2047 982.352 24.8181 982.352 24.2058C982.352 23.4324 982.481 23.0135 982.771 22.9168C983.255 22.7557 984.35 22.6912 986.026 22.6912C985.22 20.8544 984.801 19.6621 984.801 19.1788C984.801 18.8887 985.059 18.6632 985.575 18.4054C986.058 18.1476 986.477 17.8898 986.767 18.0187C987.411 18.2765 988.41 20.3388 988.894 21.2411C990.666 18.9532 991.858 17.7609 992.439 17.7609C992.729 17.7609 993.051 18.0187 993.437 18.4698C993.792 18.8887 994.146 19.211 994.146 19.501C994.146 19.501 993.212 20.79 991.633 23.1424C992.954 23.368 994.082 23.5935 995.016 23.9158ZM1024.08 41.3493C1025.5 40.447 1026.95 38.4813 1027.05 36.7411C1027.21 34.711 1026.53 32.9064 1025.5 31.7141C1024.08 30.1996 1022.47 29.2006 1020.67 28.7172C1018.7 28.2339 1016.74 27.6538 1015.09 26.7838C1014 25.8815 1014.32 24.3347 1014.51 23.8835C1014.61 23.4002 1014.93 22.2401 1017.03 21.4023C1019.12 21.1122 1020.93 21.4989 1021.93 21.7889C1022.99 22.2079 1023.89 22.7879 1024.66 23.4002C1024.92 23.4002 1025.47 23.1102 1025.95 22.7235C1026.37 22.3368 1026.57 21.5956 1026.66 20.8544C1025.31 19.7266 1024.5 19.0499 1023.34 18.6309C1022.15 18.1153 1021.05 17.7287 1019.77 17.5675C1018.44 17.4064 1017.32 17.5675 1016.22 17.8253C1015.13 18.2442 1014.09 18.7598 1013.26 19.6299C1012.42 20.3066 1011.9 21.2411 1011.58 22.0467C1011.07 22.9813 1010.81 23.9158 1010.68 24.9792C1010.61 25.817 1010.68 26.5904 1010.81 27.2993C1010.94 28.0727 1011.23 28.7172 1011.74 29.3295C1013.16 30.7474 1014.74 31.6497 1016.58 32.0364C1018.48 32.4553 1022.09 32.8097 1022.96 35.1944C1023.86 37.869 1019.57 40.9948 1014.77 37.9657C1014.38 37.6112 1013.48 36.6767 1013.26 36.2578C1013.26 36.2578 1011.94 36.58 1010.94 37.4501C1010.61 38.6102 1012.19 40.4792 1013.55 41.7359C1016.35 43.4116 1021.22 43.2505 1024.08 41.3493ZM1056.35 41.8004C1058.03 41.3493 1059.54 40.3825 1061.12 39.2869C1061.8 38.4168 1060.83 36.8378 1059.64 36.5156C1058.77 36.4833 1058.06 37.1601 1057.1 37.3856C1056.13 37.8368 1052.46 39.5125 1049.75 37.5468C1047.17 35.71 1047.27 32.0041 1047.56 29.0395C1047.85 27.6538 1047.62 25.527 1049.43 23.4968C1049.97 22.8524 1052.23 20.8867 1055.84 21.9178C1056.64 22.1112 1058.22 22.6268 1058.87 22.9813C1059.83 23.2068 1061.51 21.2089 1060.61 20.4033C1059.8 19.3721 1058.38 18.6954 1057.39 18.3409C1055.97 17.8576 1053.04 17.4386 1050.52 18.212C1046.69 19.4043 1044.43 22.7557 1044.01 24.6569C1043.46 26.0426 1043.3 28.2016 1043.24 30.0062C1043.24 31.8108 1043.24 33.4542 1043.53 34.9043C1043.92 36.4189 1044.3 37.9979 1045.24 39.2224C1046.01 40.1569 1046.69 40.7048 1048.2 41.4137C1050.23 42.3804 1053.74 42.5093 1056.35 41.8004ZM1078.79 42.4449C1079.04 42.4449 1079.33 42.4449 1079.69 42.4449C1080.01 42.4449 1080.66 42.1549 1080.82 42.1226C1081.07 40.7692 1081.11 35.3555 1081.24 33.7765L1084.68 34.0987C1085.75 35.9033 1087 37.3212 1088.36 38.6746C1089.71 40.028 1091.39 41.317 1092.61 42.2838L1094.48 40.1247C1093.77 38.9969 1091.29 35.3233 1089.13 33.5187C1089.71 33.0353 1091.39 32.0364 1091.77 31.6819C1092.55 30.7796 1094.32 29.7484 1094.32 25.4625C1094.35 22.8846 1093.29 20.9511 1092.71 20.2099C1092 19.3399 1091.26 18.6632 1090.42 18.212C1087.97 16.8586 1084.49 17.1164 1083.23 17.3742C1080.3 17.922 1078.08 19.1788 1077.85 19.3077C1077.66 20.2744 1077.4 26.6871 1077.34 29.6517C1077.27 31.263 1077.59 39.0613 1077.63 39.8025C1077.76 40.6725 1077.79 41.5426 1077.88 42.2515L1078.79 42.4449ZM1081.4 30.1673V21.8534C1083.23 21.2089 1086.39 21.1122 1087.2 21.2734C1088.68 21.6278 1090.68 22.8846 1090.71 25.3981C1090.71 29.1361 1087.39 30.5218 1081.4 30.1673ZM1117.36 42.8316C1118.78 42.9605 1120.13 42.9605 1121.65 42.4449C1122.84 41.9615 1124.58 40.8659 1125.71 39.3513C1127.06 37.1923 1128.41 34.8077 1128.28 28.3628C1128.03 23.1102 1127.7 19.9199 1127.29 18.1476L1126.77 17.8253C1126.29 17.6964 1125.87 17.6964 1125.48 17.8253C1125.03 17.922 1124.64 18.2442 1124.35 18.7276C1124.87 24.3669 1125.06 28.2983 1124.55 31.4885C1123.58 37.2567 1121 38.2235 1118.01 38.0946C1115.3 37.9979 1114.17 35.291 1113.98 32.4875C1113.72 30.3929 1113.56 28.395 1113.56 26.2359C1113.49 23.1102 1113.88 20.1133 1113.69 18.7276C1112.43 18.5343 1111.53 18.6954 1111.01 19.1143C1110.79 19.9521 1110.43 23.9802 1110.43 25.8492C1110.27 33.1964 1111.3 37.0956 1112.69 39.6413C1113.36 40.6081 1114.91 42.3804 1117.36 42.8316ZM1146.66 42.0582C1147.2 39.3191 1148.91 29.6195 1149.46 26.2037C1150.26 28.8783 1153.07 39.3513 1153.71 42.0582H1156.1C1157.71 38.3846 1160.09 28.1694 1160.9 25.3014C1161.61 27.9761 1162.99 38.9969 1163.54 41.8004C1164.48 42.2515 1166.44 41.5426 1166.63 41.2848C1166.31 37.3856 1165.83 33.2609 1165.28 29.4262C1164.64 25.6237 1164.06 21.9823 1162.99 18.3409C1162.67 17.7287 1161.83 17.3742 1161.06 17.4386C1159.96 17.3097 1159.35 17.5353 1159.09 17.7931C1158.13 19.9844 1155.94 27.9438 1155.03 32.3264C1154.42 29.8129 1151.75 19.9521 1150.84 18.0831C1150.33 17.5353 1149.33 17.5675 1148.94 17.5675C1148.4 17.5675 1147.98 17.632 1147.75 17.8898C1146.66 21.5311 1145.62 26.1393 1145.01 29.9418C1144.56 32.4875 1143.88 37.5145 1143.82 41.4137C1144.43 42.5093 1146.17 42.5738 1146.66 42.0582ZM1194.05 23.9158C1194.34 24.6247 1193.92 25.6559 1193.66 26.3648C1193.27 26.3971 1192.69 26.4293 1191.98 26.4293C1191.53 26.4293 1191.05 26.4293 1190.5 26.3971C1191.02 27.5571 1191.44 28.5883 1191.73 29.5228C1191.57 29.7162 1191.24 29.974 1190.7 30.2318C1190.24 30.3607 1189.89 30.5218 1189.5 30.5218C1188.99 30.1029 1188.31 29.1039 1187.47 27.6538C1186.67 28.7817 1185.93 29.684 1185.25 30.4574C1184.96 30.4251 1184.57 30.2962 1184.12 29.9095C1183.77 29.6517 1183.45 29.3617 1183.19 29.0395C1183.41 28.3305 1183.9 27.2993 1184.73 25.9137C1182.83 25.6881 1181.8 25.527 1181.61 25.3659C1181.42 25.2047 1181.38 24.8181 1181.38 24.2058C1181.38 23.4324 1181.51 23.0135 1181.8 22.9168C1182.29 22.7557 1183.38 22.6912 1185.06 22.6912C1184.25 20.8544 1183.83 19.6621 1183.83 19.1788C1183.83 18.8887 1184.09 18.6632 1184.61 18.4054C1185.09 18.1476 1185.51 17.8898 1185.8 18.0187C1186.44 18.2765 1187.44 20.3388 1187.92 21.2411C1189.7 18.9532 1190.89 17.7609 1191.47 17.7609C1191.76 17.7609 1192.08 18.0187 1192.47 18.4698C1192.82 18.8887 1193.18 19.211 1193.18 19.501C1193.18 19.501 1192.24 20.79 1190.66 23.1424C1191.98 23.368 1193.11 23.5935 1194.05 23.9158Z" fill="#454545"/>
</svg>
